<svg width="199" height="142" viewBox="0 0 199 142" fill="none" xmlns="http://www.w3.org/2000/svg">
<path d="M46.4246 82.0437C47.8724 80.6812 50.1484 80.7523 51.5084 82.2023C53.1403 83.9423 53.055 86.6782 51.3177 88.3132L24.1734 113.858C22.5809 115.357 20.0772 115.279 18.5813 113.684C17.0853 112.089 17.1636 109.581 18.756 108.082L46.4246 82.0437Z" fill="#A6517E"/>
<path d="M122.9 94.5518C124.315 93.2195 126.541 93.289 127.871 94.7069C129.467 96.4085 129.383 99.0838 127.684 100.683L101.228 125.58C99.2172 127.473 96.0557 127.374 94.1666 125.36L92.2896 123.358L122.9 94.5518Z" fill="#A6517E"/>
<path d="M33.1491 86.2515C35.1601 84.359 38.3217 84.4576 40.2108 86.4718L42.2076 88.6009L15.2586 113.962C13.6661 115.461 11.1624 115.383 9.66644 113.788C8.17048 112.193 8.24874 109.685 9.84122 108.186L33.1491 86.2515Z" fill="#A6517E"/>
<path d="M109.446 98.6863C111.457 96.7938 114.619 96.8925 116.508 98.9066L118.505 101.036L91.5556 126.397C89.9631 127.896 87.4594 127.818 85.9634 126.223C84.4675 124.628 84.5457 122.12 86.1382 120.621L109.446 98.6863Z" fill="#A6517E"/>
<path d="M20.7729 8.49679C22.178 10.7651 25.7341 9.25669 30.0896 4.54364C34.0694 0.236512 34.8757 -0.237878 36.6259 0.697087C39.7011 2.33857 39.0368 5.03714 34.2134 10.4977C30.816 14.3424 29.949 15.9707 30.4539 17.5482C32.1939 22.9795 32.0536 24.4411 29.5697 26.786C26.9162 29.2929 26.3601 32.5125 28.254 34.4027C30.4409 36.5855 32.6124 35.5487 38.0541 29.7215L43.5025 23.8874L46.4046 25.3832C49.8131 27.1411 51.1705 26.6009 55.9851 21.5689C59.7078 17.679 62.2259 17.1687 63.7439 19.9968C64.6187 21.6287 63.7957 23.0074 58.0021 29.6186C51.6448 36.8711 49.9596 40.4178 52.2117 41.8064C53.7641 42.764 53.3368 45.702 51.2581 48.3587C49.396 50.7383 48.6166 54.8694 50.0301 54.8669C50.4095 54.8662 52.8041 52.8028 55.3514 50.2807C59.1785 46.4903 60.2714 45.8771 61.6536 46.7411C65.3952 49.0807 64.1665 51.4272 52.7822 63.6851C43.1739 74.0307 41.6801 76.0741 41.896 78.5766C42.0883 80.8094 42.6757 81.5521 44.4469 81.7994C46.1804 82.0419 48.1149 80.7618 52.2842 76.6139C58.2586 70.6706 61.2425 69.904 61.6876 74.1974C61.8743 76.0017 60.2433 78.5 55.1885 84.1505C51.4768 88.3004 48.4408 92.3002 48.4421 93.0401C48.4452 94.7683 51.0936 97.4193 52.8141 97.4162C53.545 97.4149 55.3137 96.3237 56.7441 94.9913C59.4314 92.4873 62.3644 91.8437 63.4083 93.5285C64.7126 95.6345 67.2039 94.216 72.7862 88.1922C78.2789 82.2653 81.3192 80.6272 82.699 82.855C83.8833 84.7668 87.364 83.7508 91.0288 80.422C95.2373 76.599 95.9331 76.4034 97.7096 78.5395C98.7323 79.7688 98.7388 80.6847 97.7484 83.4457C96.7675 86.1768 96.7688 87.4128 97.7501 89.7757C98.7984 92.2962 98.7218 93.1783 97.212 95.9983C96.2439 97.8058 95.6977 99.5292 95.9966 99.8275C96.5382 100.368 109.098 87.6768 113.139 82.5049C114.681 80.5311 115.957 79.8673 117.805 80.0786C121.357 80.4842 121.671 83.9315 118.501 87.7197C117.138 89.348 116.024 91.1566 116.025 91.7388C116.027 93.177 118.973 96.3294 120.312 96.327C120.908 96.3259 124.42 93.2585 128.116 89.5099C135.325 82.1988 138.446 81.0974 138.987 85.671C139.206 87.5189 137.756 89.802 132.97 95.1435C129.502 99.0154 126.665 102.506 126.665 102.903C126.668 104.306 129.698 107.916 130.872 107.914C131.529 107.912 133.981 105.95 136.322 103.552C140.954 98.8061 143.399 98.1208 145.007 101.118C146.363 103.647 145.47 105.18 138.822 111.735C133.199 117.277 132.213 120.213 134.82 123.643C136.001 125.197 137.42 123.937 150.374 109.833C163.641 95.3878 167.044 92.6775 168.651 95.2724C168.98 95.8037 170.276 96.2366 171.53 96.2343C173.19 96.2313 176.501 93.3268 183.686 85.5737C193.562 74.9163 197.031 72.7687 198.444 76.4384C199.437 79.016 199.331 79.1729 188.918 90.4454C181.066 98.9463 178.801 102.007 178.805 104.111C178.808 106.24 179.361 106.96 181.376 107.463C183.6 108.018 184.648 107.366 189.222 102.582C192.925 98.7063 195.109 97.1452 196.542 97.3477C199.994 97.8347 199.658 101.59 195.777 105.908C192.231 109.855 191.601 112.356 193.337 115.593C194.077 116.972 193.928 118.247 192.76 120.52C191.419 123.127 191.364 124.132 192.391 127.231C193.586 130.836 193.549 130.936 189.016 136.271L184.431 141.667L163.099 141.705L141.766 141.744L146.87 136.549C150.97 132.375 151.911 130.825 151.651 128.666C151.179 124.743 147.546 123.637 144.756 126.568C143.594 127.789 139.896 131.707 136.54 135.276L130.437 141.764L110.691 141.8L90.9445 141.836L92.0396 139.778C93.6224 136.802 91.7582 133.13 88.6676 133.136C87.0302 133.139 85.201 134.486 82.7454 137.499L79.1935 141.857L65.3753 141.882C51.9076 141.907 51.5377 141.852 50.8136 139.732C50.405 138.537 50.1881 137.122 50.331 136.59C50.4748 136.058 49.1297 137.039 47.3428 138.772L44.0938 141.921L23.6832 141.958L3.27354 141.995L3.80246 138.688C4.2302 136.022 3.93605 135.133 2.28609 134.105C0.578133 133.042 0.237163 131.889 0.228611 127.146C0.219711 122.209 0.598951 121.027 3.10889 118.152C6.34822 114.443 6.45828 113.904 4.86986 109.527C3.88305 106.81 4.00341 106.094 5.84135 103.744C7.12925 102.098 7.71411 100.357 7.35678 99.2345C6.9878 98.0775 7.68635 96.2058 9.26216 94.1284C11.8734 90.6854 12.3973 88.3363 10.7773 87.3373C8.52521 85.9486 10.1841 82.2947 16.0666 75.6862C22.268 68.7202 23.4102 66.0604 21.1623 63.8168C19.1408 61.7992 17.1995 62.5406 12.6177 67.0771L8.16122 71.4905L4.14249 70.2414L0.123755 68.9933L0.102852 47.2268L0.0819469 25.4593L8.34013 16.4982C16.0568 8.12427 19.2633 6.06038 20.7729 8.49679Z" fill="#A6517E" fill-opacity="0.6"/>
<path d="M52.0665 22.2723C48.5194 24.5186 45.4467 19.4438 48.497 16.3772C50.0284 14.8377 50.7555 14.9079 52.6291 16.7769C54.4765 18.6218 54.2441 20.8931 52.0665 22.2723Z" fill="#A6517E" fill-opacity="0.6"/>
<path d="M64.7238 70.7982C62.3593 70.8025 61.2575 68.5964 62.281 65.9108C62.9882 64.0535 66.1822 64.128 67.771 66.0382C69.4895 68.1048 67.769 70.7927 64.7238 70.7982Z" fill="#A6517E" fill-opacity="0.6"/>
<ellipse rx="4.34783" ry="6.28198" transform="matrix(0.763173 0.646194 -0.644912 0.764257 179.467 130.472)" fill="#A6517E"/>
<ellipse rx="4.34783" ry="6.28198" transform="matrix(0.763173 0.646194 -0.644911 0.764257 15.1386 23.4158)" fill="#A6517E"/>
</svg>
