<svg width="154" height="117" viewBox="0 0 154 117" fill="none" xmlns="http://www.w3.org/2000/svg">
<g clip-path="url(#clip0_477_9263)">
<rect width="154" height="117" fill="white"/>
<path d="M28.6163 18.2391C25.2036 12.47 24.9621 5.87928 28.0393 2.48802C30.1631 0.146914 33.9592 0 92.1484 0H154V48.8911V97.7808L150.302 95.8682C145.816 93.5461 141.015 94.5283 135.822 98.8296C131.106 102.736 128.142 102.852 123.619 99.303C121.607 97.7237 118.085 96.5824 115.229 96.5824C110.947 96.5824 108.944 97.9087 99.8087 106.785C88.295 117.973 84.3598 119.347 79.3593 113.926C77.6939 112.121 76.1539 108.004 75.6056 103.887C74.6917 97.0272 74.7817 96.7919 80.9198 89.8991C88.0673 81.8733 88.6988 78.0794 83.8129 72.513L80.4642 68.6959L58.0301 91.0962C45.6898 103.417 34.4393 114.011 33.0276 114.639C26.8335 117.395 19.0013 110.025 20.8114 103.145C21.2683 101.406 33.6223 88.0736 48.2651 73.5182C73.2499 48.6802 74.8867 46.7431 74.8867 42.031C74.8867 37.9868 73.9496 36.1898 70.0649 32.789C62.0076 25.7331 59.5101 26.6268 43.8484 42.1698C28.7718 57.1319 25.6264 58.4623 19.5824 52.4333C14.7251 47.5906 15.4099 44.2429 22.882 36.3068C31.3362 27.3274 32.2637 24.4054 28.6163 18.2391Z" fill="#A6517E" fill-opacity="0.6"/>
<path d="M9.08762 75.1057C-0.954309 74.8214 -3.54322 60.8782 5.75123 57.1428C10.243 55.3376 11.4528 55.5213 15.3676 58.5929C22.721 64.3606 18.5335 75.3737 9.08762 75.1057Z" fill="#A6517E" fill-opacity="0.6"/>
<ellipse rx="4.05153" ry="5.85159" transform="matrix(0.762756 0.646687 -0.647175 0.762341 37.4973 11.581)" fill="#A6517E"/>
<path fill-rule="evenodd" clip-rule="evenodd" d="M98.4794 6.58999C97.2886 8.14436 95.7251 9.91052 93.7514 12.0068C86.2793 19.9429 85.5946 23.2906 90.4518 28.1334C96.4958 34.1623 99.6413 32.8319 114.718 17.8698C130.38 2.32682 132.877 1.43309 140.934 8.48905C144.819 11.8898 145.756 13.6868 145.756 17.731C145.756 22.4432 144.119 24.3802 119.135 49.2182C104.492 63.7736 92.1378 77.1061 91.6808 78.8445C89.8708 85.725 97.703 93.0952 103.897 90.3392C105.309 89.7108 116.559 79.1166 128.9 66.7962L151.334 44.3959L156.702 39.15C161.588 44.7164 172.855 58.7704 165.708 66.7962C162.016 70.9416 164.232 73.294 166.784 76.003C168.475 77.7984 170.314 79.7504 170.678 82.4848C159.164 93.6733 175.679 99.4709 170.678 94.05C169.732 93.0246 170.038 90.7607 170.378 88.2416C170.636 86.326 170.915 84.2629 170.678 82.4848C179.813 73.6087 181.817 72.2824 186.098 72.2824C188.955 72.2824 192.477 73.4237 194.489 75.003C199.012 78.5521 201.976 78.4364 206.691 74.5296C211.884 70.2283 216.685 69.2462 221.172 71.5682L224.869 73.4808V24.5911V-24.3H163.018C146.72 -24.3 134.69 -24.2885 125.767 -24.2204L98.6302 6.72206L98.4794 6.58999Z" fill="#A6517E"/>
</g>
<defs>
<clipPath id="clip0_477_9263">
<rect width="154" height="117" fill="white"/>
</clipPath>
</defs>
</svg>
