<svg width="42" height="42" viewBox="0 0 42 42" fill="none" xmlns="http://www.w3.org/2000/svg">
<path d="M39.5 20.75C39.5 31.1053 31.1053 39.5 20.75 39.5C10.3947 39.5 2 31.1053 2 20.75C2 10.3947 10.3947 2 20.75 2C31.1053 2 39.5 10.3947 39.5 20.75Z" stroke="#A6517E" stroke-width="4"/>
<path d="M29.0834 20.75C29.0834 31.1053 25.3524 39.5 20.75 39.5C16.1476 39.5 12.4167 31.1053 12.4167 20.75C12.4167 10.3947 16.1476 2 20.75 2C25.3524 2 29.0834 10.3947 29.0834 20.75Z" stroke="#211A1E" stroke-width="4"/>
<path d="M37.4166 30.7396C33.6968 28.4693 27.7638 27 21.0798 27C13.9856 27 7.7373 28.6552 4.08331 31.1667" stroke="#A6517E" stroke-width="4"/>
<path d="M37.4166 10.5143C33.7721 12.924 27.7259 14.5 20.8835 14.5C13.8712 14.5 7.69508 12.8448 4.08331 10.3333" stroke="#A6517E" stroke-width="4"/>
</svg>
