<svg width="25" height="25" viewBox="0 0 25 25" fill="none" xmlns="http://www.w3.org/2000/svg">
<circle cx="12.5" cy="12.5" r="12" fill="white" stroke="#686777"/>
<path d="M19 12C19 15.3137 16.3137 18 13 18C9.68629 18 7 15.3137 7 12C7 8.68629 9.68629 6 13 6C16.3137 6 19 8.68629 19 12Z" stroke="#A6517E" stroke-width="2"/>
<path d="M15.6667 12C15.6667 15.3137 14.4728 18 13 18C11.5273 18 10.3333 15.3137 10.3333 12C10.3333 8.68629 11.5273 6 13 6C14.4728 6 15.6667 8.68629 15.6667 12Z" stroke="#211A1E" stroke-width="2"/>
<path d="M18.3333 15.1967C17.143 14.4702 15.2444 14 13.1055 14C10.8354 14 8.83593 14.5297 7.66666 15.3333" stroke="#A6517E" stroke-width="2"/>
<path d="M18.3333 8.72461C17.1671 9.4957 15.2323 10 13.0427 10C10.7988 10 8.82242 9.47035 7.66666 8.66669" stroke="#A6517E" stroke-width="2"/>
</svg>
