<svg width="42" height="42" viewBox="0 0 42 42" fill="none" xmlns="http://www.w3.org/2000/svg">
<path d="M2.25 10.3333C2.25 5.73096 5.98096 2 10.5833 2H31.4167C36.019 2 39.75 5.73096 39.75 10.3333V31.1667C39.75 35.769 36.019 39.5 31.4167 39.5H10.5833C5.98096 39.5 2.25 35.769 2.25 31.1667V10.3333Z" stroke="#A6517E" stroke-width="4"/>
<path d="M21 20.75C21 17.2982 23.7982 14.5 27.25 14.5H37.6667C38.8173 14.5 39.75 15.4327 39.75 16.5833V24.9167C39.75 26.0673 38.8173 27 37.6667 27H27.25C23.7982 27 21 24.2018 21 20.75Z" stroke="#211A1E" stroke-width="4"/>
<path d="M27.25 20.75L27.4583 20.75" stroke="#A6517E" stroke-width="4" stroke-linecap="round"/>
</svg>
