<svg width="20" height="20" viewBox="0 0 20 20" fill="none" xmlns="http://www.w3.org/2000/svg">
<path d="M15.9227 1.52798C16.2607 1.18992 16.7193 1 17.1973 1C17.6754 1 18.134 1.18992 18.472 1.52798C18.8101 1.86605 19 2.32456 19 2.80265C19 3.28075 18.8101 3.73926 18.472 4.07732L10.3991 12.1502L7 13L7.84978 9.60088L15.9227 1.52798Z" stroke="#211A1E" stroke-width="2" stroke-linecap="round" stroke-linejoin="round"/>
<path d="M14 4L16 6" stroke="#211A1E" stroke-width="2" stroke-linecap="round" stroke-linejoin="round"/>
<path d="M10.5 2C11.0523 2 11.5 1.55228 11.5 1C11.5 0.447715 11.0523 0 10.5 0V2ZM20 9.5C20 8.94772 19.5523 8.5 19 8.5C18.4477 8.5 18 8.94772 18 9.5H20ZM10 2H10.5V0H10V2ZM18 9.5V10H20V9.5H18ZM10 18C5.58172 18 2 14.4183 2 10H0C0 15.5228 4.47715 20 10 20V18ZM10 20C15.5228 20 20 15.5228 20 10H18C18 14.4183 14.4183 18 10 18V20ZM2 10C2 5.58172 5.58172 2 10 2V0C4.47715 0 0 4.47715 0 10H2Z" fill="#C3423F"/>
</svg>
