<svg width="25" height="25" viewBox="0 0 25 25" fill="none" xmlns="http://www.w3.org/2000/svg">
<circle cx="12.5" cy="12.5" r="12" fill="white" stroke="#686777"/>
<path d="M7 8.66667C7 7.19391 8.19391 6 9.66667 6H16.3333C17.8061 6 19 7.19391 19 8.66667V15.3333C19 16.8061 17.8061 18 16.3333 18H9.66667C8.19391 18 7 16.8061 7 15.3333V8.66667Z" stroke="#A6517E" stroke-width="2"/>
<path d="M12.7144 9.14119C12.8439 8.92592 13.156 8.92592 13.2856 9.14119L14.0243 10.3688C14.0709 10.4461 14.1468 10.5013 14.2347 10.5216L15.6305 10.8449C15.8753 10.9016 15.9718 11.1984 15.8071 11.3882L14.8678 12.4701C14.8087 12.5383 14.7797 12.6275 14.7875 12.7175L14.9114 14.1449C14.9331 14.3952 14.6806 14.5786 14.4492 14.4806L13.13 13.9217C13.0469 13.8865 12.953 13.8865 12.8699 13.9217L11.5507 14.4806C11.3193 14.5786 11.0668 14.3952 11.0886 14.1449L11.2124 12.7175C11.2202 12.6275 11.1912 12.5383 11.1321 12.4701L10.1929 11.3882C10.0282 11.1984 10.1246 10.9016 10.3694 10.8449L11.7652 10.5216C11.8531 10.5013 11.929 10.4461 11.9756 10.3688L12.7144 9.14119Z" stroke="#211A1E"/>
</svg>
