<svg width="42" height="42" viewBox="0 0 42 42" fill="none" xmlns="http://www.w3.org/2000/svg">
<path d="M2 10.3333C2 5.73096 5.73096 2 10.3333 2H31.1667C35.769 2 39.5 5.73096 39.5 10.3333V31.1667C39.5 35.769 35.769 39.5 31.1667 39.5H10.3333C5.73096 39.5 2 35.769 2 31.1667V10.3333Z" stroke="#A6517E" stroke-width="4"/>
<path d="M19.8574 11.8164C20.2622 11.1437 21.2376 11.1437 21.6424 11.8164L23.9511 15.6526C24.0965 15.8943 24.3338 16.0667 24.6086 16.1303L28.9705 17.1405C29.7354 17.3177 30.0368 18.2453 29.5221 18.8382L26.587 22.2193C26.4021 22.4324 26.3115 22.7112 26.3359 22.9923L26.723 27.4529C26.7909 28.2351 26.0019 28.8083 25.2789 28.5021L21.1562 26.7555C20.8965 26.6455 20.6033 26.6455 20.3436 26.7555L16.2209 28.5021C15.498 28.8083 14.7089 28.2351 14.7768 27.4529L15.1639 22.9923C15.1883 22.7112 15.0977 22.4324 14.9128 22.2193L11.9777 18.8382C11.463 18.2453 11.7644 17.3177 12.5293 17.1405L16.8912 16.1303C17.166 16.0667 17.4033 15.8943 17.5487 15.6526L19.8574 11.8164Z" stroke="#211A1E" stroke-width="2"/>
</svg>
